<svg id="visual" viewBox="0 0 960 300" width="960" height="300" xmlns="http://www.w3.org/2000/svg" xmlns:xlink="http://www.w3.org/1999/xlink" version="1.1"><rect x="0" y="0" width="960" height="300" fill="#ffffff"></rect><path d="M0 104L22.8 106.8C45.7 109.7 91.3 115.3 137 117.2C182.7 119 228.3 117 274 110.5C319.7 104 365.3 93 411.2 89.2C457 85.3 503 88.7 548.8 92.7C594.7 96.7 640.3 101.3 686 100.3C731.7 99.3 777.3 92.7 823 88.3C868.7 84 914.3 82 937.2 81L960 80L960 0L937.2 0C914.3 0 868.7 0 823 0C777.3 0 731.7 0 686 0C640.3 0 594.7 0 548.8 0C503 0 457 0 411.2 0C365.3 0 319.7 0 274 0C228.3 0 182.7 0 137 0C91.3 0 45.7 0 22.8 0L0 0Z" fill="#699bfa"></path><path d="M0 64L22.8 68.8C45.7 73.7 91.3 83.3 137 86C182.7 88.7 228.3 84.3 274 81.7C319.7 79 365.3 78 411.2 77.3C457 76.7 503 76.3 548.8 79.3C594.7 82.3 640.3 88.7 686 88.8C731.7 89 777.3 83 823 82.3C868.7 81.7 914.3 86.3 937.2 88.7L960 91L960 0L937.2 0C914.3 0 868.7 0 823 0C777.3 0 731.7 0 686 0C640.3 0 594.7 0 548.8 0C503 0 457 0 411.2 0C365.3 0 319.7 0 274 0C228.3 0 182.7 0 137 0C91.3 0 45.7 0 22.8 0L0 0Z" fill="#5381f1"></path><path d="M0 53L22.8 54.8C45.7 56.7 91.3 60.3 137 59.8C182.7 59.3 228.3 54.7 274 54.5C319.7 54.3 365.3 58.7 411.2 61.2C457 63.7 503 64.3 548.8 66C594.7 67.7 640.3 70.3 686 72C731.7 73.7 777.3 74.3 823 75C868.7 75.7 914.3 76.3 937.2 76.7L960 77L960 0L937.2 0C914.3 0 868.7 0 823 0C777.3 0 731.7 0 686 0C640.3 0 594.7 0 548.8 0C503 0 457 0 411.2 0C365.3 0 319.7 0 274 0C228.3 0 182.7 0 137 0C91.3 0 45.7 0 22.8 0L0 0Z" fill="#4366e6"></path><path d="M0 48L22.8 46.5C45.7 45 91.3 42 137 39.5C182.7 37 228.3 35 274 36C319.7 37 365.3 41 411.2 41.2C457 41.3 503 37.7 548.8 37.3C594.7 37 640.3 40 686 40.7C731.7 41.3 777.3 39.7 823 38.7C868.7 37.7 914.3 37.3 937.2 37.2L960 37L960 0L937.2 0C914.3 0 868.7 0 823 0C777.3 0 731.7 0 686 0C640.3 0 594.7 0 548.8 0C503 0 457 0 411.2 0C365.3 0 319.7 0 274 0C228.3 0 182.7 0 137 0C91.3 0 45.7 0 22.8 0L0 0Z" fill="#3d49d8"></path><path d="M0 15L22.8 16.8C45.7 18.7 91.3 22.3 137 23.3C182.7 24.3 228.3 22.7 274 21.5C319.7 20.3 365.3 19.7 411.2 20.3C457 21 503 23 548.8 24.3C594.7 25.7 640.3 26.3 686 26.2C731.7 26 777.3 25 823 24.5C868.7 24 914.3 24 937.2 24L960 24L960 0L937.2 0C914.3 0 868.7 0 823 0C777.3 0 731.7 0 686 0C640.3 0 594.7 0 548.8 0C503 0 457 0 411.2 0C365.3 0 319.7 0 274 0C228.3 0 182.7 0 137 0C91.3 0 45.7 0 22.8 0L0 0Z" fill="#3f24c7"></path></svg>