<svg id="visual" viewBox="0 0 900 280" width="900" height="280" xmlns="http://www.w3.org/2000/svg" xmlns:xlink="http://www.w3.org/1999/xlink" version="1.1"><rect x="0" y="0" width="900" height="280" fill="#ffffff"></rect><path d="M0 115L21.5 113.8C43 112.7 86 110.3 128.8 106.7C171.7 103 214.3 98 257.2 95C300 92 343 91 385.8 93.2C428.7 95.3 471.3 100.7 514.2 102.2C557 103.7 600 101.3 642.8 101.7C685.7 102 728.3 105 771.2 106C814 107 857 106 878.5 105.5L900 105L900 0L878.5 0C857 0 814 0 771.2 0C728.3 0 685.7 0 642.8 0C600 0 557 0 514.2 0C471.3 0 428.7 0 385.8 0C343 0 300 0 257.2 0C214.3 0 171.7 0 128.8 0C86 0 43 0 21.5 0L0 0Z" fill="#699bfa"></path><path d="M0 75L21.5 77.3C43 79.7 86 84.3 128.8 87.7C171.7 91 214.3 93 257.2 93.5C300 94 343 93 385.8 92.8C428.7 92.7 471.3 93.3 514.2 93.2C557 93 600 92 642.8 89C685.7 86 728.3 81 771.2 78C814 75 857 74 878.5 73.5L900 73L900 0L878.5 0C857 0 814 0 771.2 0C728.3 0 685.7 0 642.8 0C600 0 557 0 514.2 0C471.3 0 428.7 0 385.8 0C343 0 300 0 257.2 0C214.3 0 171.7 0 128.8 0C86 0 43 0 21.5 0L0 0Z" fill="#5381f1"></path><path d="M0 66L21.5 63.7C43 61.3 86 56.7 128.8 56C171.7 55.3 214.3 58.7 257.2 57C300 55.3 343 48.7 385.8 49.7C428.7 50.7 471.3 59.3 514.2 62C557 64.7 600 61.3 642.8 62.2C685.7 63 728.3 68 771.2 69.8C814 71.7 857 70.3 878.5 69.7L900 69L900 0L878.5 0C857 0 814 0 771.2 0C728.3 0 685.7 0 642.8 0C600 0 557 0 514.2 0C471.3 0 428.7 0 385.8 0C343 0 300 0 257.2 0C214.3 0 171.7 0 128.8 0C86 0 43 0 21.5 0L0 0Z" fill="#4366e6"></path><path d="M0 31L21.5 31C43 31 86 31 128.8 34C171.7 37 214.3 43 257.2 46.3C300 49.7 343 50.3 385.8 48.2C428.7 46 471.3 41 514.2 40.2C557 39.3 600 42.7 642.8 42.8C685.7 43 728.3 40 771.2 39.3C814 38.7 857 40.3 878.5 41.2L900 42L900 0L878.5 0C857 0 814 0 771.2 0C728.3 0 685.7 0 642.8 0C600 0 557 0 514.2 0C471.3 0 428.7 0 385.8 0C343 0 300 0 257.2 0C214.3 0 171.7 0 128.8 0C86 0 43 0 21.5 0L0 0Z" fill="#3d49d8"></path><path d="M0 21L21.5 22.7C43 24.3 86 27.7 128.8 27C171.7 26.3 214.3 21.7 257.2 18.5C300 15.3 343 13.7 385.8 14.8C428.7 16 471.3 20 514.2 20.8C557 21.7 600 19.3 642.8 18.3C685.7 17.3 728.3 17.7 771.2 20.2C814 22.7 857 27.3 878.5 29.7L900 32L900 0L878.5 0C857 0 814 0 771.2 0C728.3 0 685.7 0 642.8 0C600 0 557 0 514.2 0C471.3 0 428.7 0 385.8 0C343 0 300 0 257.2 0C214.3 0 171.7 0 128.8 0C86 0 43 0 21.5 0L0 0Z" fill="#3f24c7"></path></svg>