<svg id="visual" viewBox="0 0 900 450" width="900" height="450" xmlns="http://www.w3.org/2000/svg" xmlns:xlink="http://www.w3.org/1999/xlink" version="1.1"><rect x="0" y="0" width="900" height="450" fill="#ffffff"></rect><path d="M0 172L21.5 163.2C43 154.3 86 136.7 128.8 136.7C171.7 136.7 214.3 154.3 257.2 165.3C300 176.3 343 180.7 385.8 174C428.7 167.3 471.3 149.7 514.2 142.7C557 135.7 600 139.3 642.8 142.2C685.7 145 728.3 147 771.2 152C814 157 857 165 878.5 169L900 173L900 0L878.5 0C857 0 814 0 771.2 0C728.3 0 685.7 0 642.8 0C600 0 557 0 514.2 0C471.3 0 428.7 0 385.8 0C343 0 300 0 257.2 0C214.3 0 171.7 0 128.8 0C86 0 43 0 21.5 0L0 0Z" fill="#699bfa"></path><path d="M0 128L21.5 129C43 130 86 132 128.8 135.8C171.7 139.7 214.3 145.3 257.2 142.7C300 140 343 129 385.8 120.2C428.7 111.3 471.3 104.7 514.2 107.8C557 111 600 124 642.8 128.7C685.7 133.3 728.3 129.7 771.2 128.2C814 126.7 857 127.3 878.5 127.7L900 128L900 0L878.5 0C857 0 814 0 771.2 0C728.3 0 685.7 0 642.8 0C600 0 557 0 514.2 0C471.3 0 428.7 0 385.8 0C343 0 300 0 257.2 0C214.3 0 171.7 0 128.8 0C86 0 43 0 21.5 0L0 0Z" fill="#5381f1"></path><path d="M0 83L21.5 84.8C43 86.7 86 90.3 128.8 95.7C171.7 101 214.3 108 257.2 107.2C300 106.3 343 97.7 385.8 93.3C428.7 89 471.3 89 514.2 88.3C557 87.7 600 86.3 642.8 85.2C685.7 84 728.3 83 771.2 83.7C814 84.3 857 86.7 878.5 87.8L900 89L900 0L878.5 0C857 0 814 0 771.2 0C728.3 0 685.7 0 642.8 0C600 0 557 0 514.2 0C471.3 0 428.7 0 385.8 0C343 0 300 0 257.2 0C214.3 0 171.7 0 128.8 0C86 0 43 0 21.5 0L0 0Z" fill="#4366e6"></path><path d="M0 44L21.5 48.3C43 52.7 86 61.3 128.8 64.5C171.7 67.7 214.3 65.3 257.2 60.7C300 56 343 49 385.8 46.8C428.7 44.7 471.3 47.3 514.2 48.8C557 50.3 600 50.7 642.8 49.3C685.7 48 728.3 45 771.2 48.7C814 52.3 857 62.7 878.5 67.8L900 73L900 0L878.5 0C857 0 814 0 771.2 0C728.3 0 685.7 0 642.8 0C600 0 557 0 514.2 0C471.3 0 428.7 0 385.8 0C343 0 300 0 257.2 0C214.3 0 171.7 0 128.8 0C86 0 43 0 21.5 0L0 0Z" fill="#3d49d8"></path><path d="M0 53L21.5 48.7C43 44.3 86 35.7 128.8 31.3C171.7 27 214.3 27 257.2 29.5C300 32 343 37 385.8 39.2C428.7 41.3 471.3 40.7 514.2 37.5C557 34.3 600 28.7 642.8 30.2C685.7 31.7 728.3 40.3 771.2 43.5C814 46.7 857 44.3 878.5 43.2L900 42L900 0L878.5 0C857 0 814 0 771.2 0C728.3 0 685.7 0 642.8 0C600 0 557 0 514.2 0C471.3 0 428.7 0 385.8 0C343 0 300 0 257.2 0C214.3 0 171.7 0 128.8 0C86 0 43 0 21.5 0L0 0Z" fill="#3f24c7"></path></svg>