<svg id="visual" viewBox="0 0 960 540" width="960" height="540" xmlns="http://www.w3.org/2000/svg" xmlns:xlink="http://www.w3.org/1999/xlink" version="1.1"><g stroke-width="1" stroke-linejoin="bevel"><path d="M445.7 281L520.3 383L518.3 264Z" fill="#0b1a1f" stroke="#0b1a1f"></path><path d="M445.7 281L454.7 383L520.3 383Z" fill="#00393d" stroke="#00393d"></path><path d="M350 330L437.7 421L454.7 383Z" fill="#7fa629" stroke="#7fa629"></path><path d="M454.7 383L437.7 421L520.3 383Z" fill="#00393d" stroke="#00393d"></path><path d="M445.7 281L350 330L454.7 383Z" fill="#004947" stroke="#004947"></path><path d="M437.7 421L496.3 470L520.3 383Z" fill="#08292f" stroke="#08292f"></path><path d="M629 421L659 320L520.3 383Z" fill="#0b1a1f" stroke="#0b1a1f"></path><path d="M520.3 383L659 320L518.3 264Z" fill="#005a4e" stroke="#005a4e"></path><path d="M496.3 470L629 421L520.3 383Z" fill="#036b50" stroke="#036b50"></path><path d="M659 320L645 249L518.3 264Z" fill="#00393d" stroke="#00393d"></path><path d="M645 249L546.3 160L518.3 264Z" fill="#08292f" stroke="#08292f"></path><path d="M518.3 264L391.7 180L445.7 281Z" fill="#004947" stroke="#004947"></path><path d="M445.7 281L338 231L350 330Z" fill="#0b1a1f" stroke="#0b1a1f"></path><path d="M546.3 160L391.7 180L518.3 264Z" fill="#1e7b4d" stroke="#1e7b4d"></path><path d="M391.7 180L338 231L445.7 281Z" fill="#08292f" stroke="#08292f"></path><path d="M350 330L355 442L437.7 421Z" fill="#0b1a1f" stroke="#0b1a1f"></path><path d="M437.7 421L411.7 540L496.3 470Z" fill="#004947" stroke="#004947"></path><path d="M344 540L355 442L229.3 540Z" fill="#02080c" stroke="#02080c"></path><path d="M720.7 182L644 169L645 249Z" fill="#1e7b4d" stroke="#1e7b4d"></path><path d="M645 249L644 169L546.3 160Z" fill="#5c993a" stroke="#5c993a"></path><path d="M411.7 540L500.3 540L496.3 470Z" fill="#1e7b4d" stroke="#1e7b4d"></path><path d="M496.3 470L645 540L629 421Z" fill="#00393d" stroke="#00393d"></path><path d="M355 442L411.7 540L437.7 421Z" fill="#02080c" stroke="#02080c"></path><path d="M644 169L628 127L546.3 160Z" fill="#1e7b4d" stroke="#1e7b4d"></path><path d="M546.3 160L495.3 80L391.7 180Z" fill="#7fa629" stroke="#7fa629"></path><path d="M629 421L724.7 389L659 320Z" fill="#00393d" stroke="#00393d"></path><path d="M659 320L739.7 299L645 249Z" fill="#3c8a46" stroke="#3c8a46"></path><path d="M710.7 442L724.7 389L629 421Z" fill="#08292f" stroke="#08292f"></path><path d="M628 127L495.3 80L546.3 160Z" fill="#08292f" stroke="#08292f"></path><path d="M391.7 180L291 144L338 231Z" fill="#036b50" stroke="#036b50"></path><path d="M645 540L710.7 442L629 421Z" fill="#3c8a46" stroke="#3c8a46"></path><path d="M724.7 389L739.7 299L659 320Z" fill="#02080c" stroke="#02080c"></path><path d="M644 169L720.7 182L628 127Z" fill="#3c8a46" stroke="#3c8a46"></path><path d="M495.3 80L416.7 78L391.7 180Z" fill="#0b1a1f" stroke="#0b1a1f"></path><path d="M187.3 434L355 442L350 330Z" fill="#08292f" stroke="#08292f"></path><path d="M355 442L344 540L411.7 540Z" fill="#1e7b4d" stroke="#1e7b4d"></path><path d="M500.3 540L645 540L496.3 470Z" fill="#7fa629" stroke="#7fa629"></path><path d="M739.7 299L720.7 182L645 249Z" fill="#08292f" stroke="#08292f"></path><path d="M416.7 78L344 99L391.7 180Z" fill="#1e7b4d" stroke="#1e7b4d"></path><path d="M344 99L291 144L391.7 180Z" fill="#036b50" stroke="#036b50"></path><path d="M338 231L204.3 279L350 330Z" fill="#02080c" stroke="#02080c"></path><path d="M189.3 186L204.3 279L338 231Z" fill="#3c8a46" stroke="#3c8a46"></path><path d="M645 540L722.7 540L710.7 442Z" fill="#004947" stroke="#004947"></path><path d="M881.3 329L739.7 299L724.7 389Z" fill="#1e7b4d" stroke="#1e7b4d"></path><path d="M881.3 329L855.3 287L739.7 299Z" fill="#036b50" stroke="#036b50"></path><path d="M204.3 279L177.3 332L350 330Z" fill="#004947" stroke="#004947"></path><path d="M177.3 332L187.3 434L350 330Z" fill="#5c993a" stroke="#5c993a"></path><path d="M628 127L546.3 0L495.3 80Z" fill="#0b1a1f" stroke="#0b1a1f"></path><path d="M495.3 80L421.7 0L416.7 78Z" fill="#5c993a" stroke="#5c993a"></path><path d="M416.7 78L332 0L344 99Z" fill="#02080c" stroke="#02080c"></path><path d="M669 0L546.3 0L628 127Z" fill="#005a4e" stroke="#005a4e"></path><path d="M195.3 122L189.3 186L291 144Z" fill="#00393d" stroke="#00393d"></path><path d="M546.3 0L421.7 0L495.3 80Z" fill="#08292f" stroke="#08292f"></path><path d="M291 144L189.3 186L338 231Z" fill="#00393d" stroke="#00393d"></path><path d="M204.3 279L113.7 255L177.3 332Z" fill="#004947" stroke="#004947"></path><path d="M195.3 122L291 144L202.3 0Z" fill="#7fa629" stroke="#7fa629"></path><path d="M187.3 434L229.3 540L355 442Z" fill="#3c8a46" stroke="#3c8a46"></path><path d="M177.3 332L143.7 385L187.3 434Z" fill="#5c993a" stroke="#5c993a"></path><path d="M187.3 434L99.7 540L229.3 540Z" fill="#036b50" stroke="#036b50"></path><path d="M113.7 255L143.7 385L177.3 332Z" fill="#7fa629" stroke="#7fa629"></path><path d="M202.3 0L291 144L344 99Z" fill="#036b50" stroke="#036b50"></path><path d="M189.3 186L136.7 198L204.3 279Z" fill="#036b50" stroke="#036b50"></path><path d="M825.3 104L743.7 62L720.7 182Z" fill="#1e7b4d" stroke="#1e7b4d"></path><path d="M720.7 182L743.7 62L628 127Z" fill="#3c8a46" stroke="#3c8a46"></path><path d="M421.7 0L332 0L416.7 78Z" fill="#1e7b4d" stroke="#1e7b4d"></path><path d="M881.3 329L724.7 389L874.3 435Z" fill="#08292f" stroke="#08292f"></path><path d="M739.7 299L831.3 182L720.7 182Z" fill="#0b1a1f" stroke="#0b1a1f"></path><path d="M855.3 287L831.3 182L739.7 299Z" fill="#004947" stroke="#004947"></path><path d="M743.7 62L669 0L628 127Z" fill="#0b1a1f" stroke="#0b1a1f"></path><path d="M195.3 122L136.7 198L189.3 186Z" fill="#00393d" stroke="#00393d"></path><path d="M136.7 198L113.7 255L204.3 279Z" fill="#7fa629" stroke="#7fa629"></path><path d="M874.3 435L724.7 389L710.7 442Z" fill="#7fa629" stroke="#7fa629"></path><path d="M855.3 287L960 281L831.3 182Z" fill="#3c8a46" stroke="#3c8a46"></path><path d="M722.7 540L817.3 540L710.7 442Z" fill="#1e7b4d" stroke="#1e7b4d"></path><path d="M817.3 540L874.3 435L710.7 442Z" fill="#3c8a46" stroke="#3c8a46"></path><path d="M831.3 182L825.3 104L720.7 182Z" fill="#08292f" stroke="#08292f"></path><path d="M743.7 62L733.7 0L669 0Z" fill="#08292f" stroke="#08292f"></path><path d="M960 158L825.3 104L831.3 182Z" fill="#5c993a" stroke="#5c993a"></path><path d="M835.3 0L733.7 0L743.7 62Z" fill="#08292f" stroke="#08292f"></path><path d="M0 290L75.7 419L143.7 385Z" fill="#00393d" stroke="#00393d"></path><path d="M143.7 385L75.7 419L187.3 434Z" fill="#036b50" stroke="#036b50"></path><path d="M332 0L202.3 0L344 99Z" fill="#0b1a1f" stroke="#0b1a1f"></path><path d="M195.3 122L102.7 87L136.7 198Z" fill="#1e7b4d" stroke="#1e7b4d"></path><path d="M0 150L0 290L113.7 255Z" fill="#0b1a1f" stroke="#0b1a1f"></path><path d="M75.7 419L99.7 540L187.3 434Z" fill="#7fa629" stroke="#7fa629"></path><path d="M202.3 0L102.7 87L195.3 122Z" fill="#7fa629" stroke="#7fa629"></path><path d="M113.7 255L0 290L143.7 385Z" fill="#00393d" stroke="#00393d"></path><path d="M960 384L960 281L881.3 329Z" fill="#5c993a" stroke="#5c993a"></path><path d="M881.3 329L960 281L855.3 287Z" fill="#0b1a1f" stroke="#0b1a1f"></path><path d="M960 384L881.3 329L874.3 435Z" fill="#0b1a1f" stroke="#0b1a1f"></path><path d="M960 426L960 384L874.3 435Z" fill="#5c993a" stroke="#5c993a"></path><path d="M960 84L835.3 0L825.3 104Z" fill="#1e7b4d" stroke="#1e7b4d"></path><path d="M825.3 104L835.3 0L743.7 62Z" fill="#0b1a1f" stroke="#0b1a1f"></path><path d="M960 540L960 426L874.3 435Z" fill="#036b50" stroke="#036b50"></path><path d="M202.3 0L129.7 0L102.7 87Z" fill="#02080c" stroke="#02080c"></path><path d="M960 281L960 158L831.3 182Z" fill="#3c8a46" stroke="#3c8a46"></path><path d="M0 150L136.7 198L102.7 87Z" fill="#0b1a1f" stroke="#0b1a1f"></path><path d="M0 150L113.7 255L136.7 198Z" fill="#7fa629" stroke="#7fa629"></path><path d="M75.7 419L0 459L99.7 540Z" fill="#08292f" stroke="#08292f"></path><path d="M0 290L0 380L75.7 419Z" fill="#3c8a46" stroke="#3c8a46"></path><path d="M0 380L0 459L75.7 419Z" fill="#036b50" stroke="#036b50"></path><path d="M817.3 540L960 540L874.3 435Z" fill="#3c8a46" stroke="#3c8a46"></path><path d="M0 70L0 150L102.7 87Z" fill="#5c993a" stroke="#5c993a"></path><path d="M960 158L960 84L825.3 104Z" fill="#08292f" stroke="#08292f"></path><path d="M0 459L0 540L99.7 540Z" fill="#005a4e" stroke="#005a4e"></path><path d="M0 0L0 70L102.7 87Z" fill="#00393d" stroke="#00393d"></path><path d="M960 84L960 0L835.3 0Z" fill="#02080c" stroke="#02080c"></path><path d="M129.7 0L0 0L102.7 87Z" fill="#02080c" stroke="#02080c"></path></g></svg>