<svg id="visual" viewBox="0 0 960 540" width="960" height="540" xmlns="http://www.w3.org/2000/svg" xmlns:xlink="http://www.w3.org/1999/xlink" version="1.1"><g stroke-width="1" stroke-linejoin="bevel"><path d="M508.3 307L523.3 464L566.3 340Z" fill="#112e42" stroke="#112e42"></path><path d="M508.3 307L407.7 350L523.3 464Z" fill="#15384f" stroke="#15384f"></path><path d="M523.3 464L609 429L566.3 340Z" fill="#297ea6" stroke="#297ea6"></path><path d="M407.7 350L402.7 468L523.3 464Z" fill="#277297" stroke="#277297"></path><path d="M465.7 540L501.3 540L523.3 464Z" fill="#00101c" stroke="#00101c"></path><path d="M523.3 464L667 540L609 429Z" fill="#00101c" stroke="#00101c"></path><path d="M407.7 350L346 383L402.7 468Z" fill="#246688" stroke="#246688"></path><path d="M402.7 468L465.7 540L523.3 464Z" fill="#112e42" stroke="#112e42"></path><path d="M729.7 435L659 392L609 429Z" fill="#205a7a" stroke="#205a7a"></path><path d="M609 429L659 392L566.3 340Z" fill="#1d4e6b" stroke="#1d4e6b"></path><path d="M447.7 183L402.7 239L508.3 307Z" fill="#112e42" stroke="#112e42"></path><path d="M653 281L508.3 307L566.3 340Z" fill="#0c2435" stroke="#0c2435"></path><path d="M508.3 307L402.7 239L407.7 350Z" fill="#112e42" stroke="#112e42"></path><path d="M407.7 350L333 276L346 383Z" fill="#1d4e6b" stroke="#1d4e6b"></path><path d="M659 392L653 281L566.3 340Z" fill="#081a28" stroke="#081a28"></path><path d="M402.7 239L333 276L407.7 350Z" fill="#112e42" stroke="#112e42"></path><path d="M246.3 394L318 483L346 383Z" fill="#081a28" stroke="#081a28"></path><path d="M346 383L318 483L402.7 468Z" fill="#1d4e6b" stroke="#1d4e6b"></path><path d="M402.7 468L339 540L465.7 540Z" fill="#15384f" stroke="#15384f"></path><path d="M550.3 150L447.7 183L508.3 307Z" fill="#1d4e6b" stroke="#1d4e6b"></path><path d="M402.7 239L300 218L333 276Z" fill="#297ea6" stroke="#297ea6"></path><path d="M318 483L339 540L402.7 468Z" fill="#112e42" stroke="#112e42"></path><path d="M501.3 540L667 540L523.3 464Z" fill="#0c2435" stroke="#0c2435"></path><path d="M667 540L729.7 435L609 429Z" fill="#15384f" stroke="#15384f"></path><path d="M659 392L718.7 301L653 281Z" fill="#1d4e6b" stroke="#1d4e6b"></path><path d="M757.7 349L718.7 301L659 392Z" fill="#205a7a" stroke="#205a7a"></path><path d="M653 281L550.3 150L508.3 307Z" fill="#112e42" stroke="#112e42"></path><path d="M668 194L550.3 150L653 281Z" fill="#277297" stroke="#277297"></path><path d="M718.7 301L668 194L653 281Z" fill="#081a28" stroke="#081a28"></path><path d="M244.3 296L246.3 394L346 383Z" fill="#081a28" stroke="#081a28"></path><path d="M318 483L225.3 540L339 540Z" fill="#1d4e6b" stroke="#1d4e6b"></path><path d="M729.7 435L757.7 349L659 392Z" fill="#277297" stroke="#277297"></path><path d="M718.7 301L740.7 182L668 194Z" fill="#246688" stroke="#246688"></path><path d="M296 76L300 218L447.7 183Z" fill="#19435d" stroke="#19435d"></path><path d="M447.7 183L300 218L402.7 239Z" fill="#112e42" stroke="#112e42"></path><path d="M333 276L244.3 296L346 383Z" fill="#15384f" stroke="#15384f"></path><path d="M300 218L244.3 296L333 276Z" fill="#15384f" stroke="#15384f"></path><path d="M126.7 361L224.3 447L246.3 394Z" fill="#246688" stroke="#246688"></path><path d="M246.3 394L224.3 447L318 483Z" fill="#19435d" stroke="#19435d"></path><path d="M667 540L740.7 540L729.7 435Z" fill="#112e42" stroke="#112e42"></path><path d="M824.3 432L814.3 340L757.7 349Z" fill="#15384f" stroke="#15384f"></path><path d="M668 194L566.3 94L550.3 150Z" fill="#00101c" stroke="#00101c"></path><path d="M550.3 150L446.7 74L447.7 183Z" fill="#19435d" stroke="#19435d"></path><path d="M845.3 217L740.7 182L718.7 301Z" fill="#112e42" stroke="#112e42"></path><path d="M668 194L610 50L566.3 94Z" fill="#00101c" stroke="#00101c"></path><path d="M224.3 447L225.3 540L318 483Z" fill="#112e42" stroke="#112e42"></path><path d="M824.3 432L757.7 349L729.7 435Z" fill="#19435d" stroke="#19435d"></path><path d="M757.7 349L814.3 340L718.7 301Z" fill="#112e42" stroke="#112e42"></path><path d="M566.3 94L446.7 74L550.3 150Z" fill="#205a7a" stroke="#205a7a"></path><path d="M740.7 540L824.3 432L729.7 435Z" fill="#19435d" stroke="#19435d"></path><path d="M735.7 61L610 50L668 194Z" fill="#297ea6" stroke="#297ea6"></path><path d="M566.3 94L505.3 0L446.7 74Z" fill="#15384f" stroke="#15384f"></path><path d="M330 0L296 76L446.7 74Z" fill="#1d4e6b" stroke="#1d4e6b"></path><path d="M446.7 74L296 76L447.7 183Z" fill="#081a28" stroke="#081a28"></path><path d="M300 218L214.3 143L244.3 296Z" fill="#246688" stroke="#246688"></path><path d="M114.7 273L126.7 361L244.3 296Z" fill="#205a7a" stroke="#205a7a"></path><path d="M244.3 296L126.7 361L246.3 394Z" fill="#297ea6" stroke="#297ea6"></path><path d="M224.3 447L85.7 540L225.3 540Z" fill="#00101c" stroke="#00101c"></path><path d="M248.3 99L214.3 143L300 218Z" fill="#19435d" stroke="#19435d"></path><path d="M824.3 432L875.3 306L814.3 340Z" fill="#0c2435" stroke="#0c2435"></path><path d="M814.3 340L845.3 217L718.7 301Z" fill="#277297" stroke="#277297"></path><path d="M733.7 0L604 0L610 50Z" fill="#15384f" stroke="#15384f"></path><path d="M296 76L248.3 99L300 218Z" fill="#19435d" stroke="#19435d"></path><path d="M875.3 306L845.3 217L814.3 340Z" fill="#277297" stroke="#277297"></path><path d="M740.7 540L854.3 540L824.3 432Z" fill="#297ea6" stroke="#297ea6"></path><path d="M824.3 432L960 416L875.3 306Z" fill="#0c2435" stroke="#0c2435"></path><path d="M610 50L505.3 0L566.3 94Z" fill="#0c2435" stroke="#0c2435"></path><path d="M505.3 0L425.7 0L446.7 74Z" fill="#277297" stroke="#277297"></path><path d="M296 76L174.3 0L248.3 99Z" fill="#0c2435" stroke="#0c2435"></path><path d="M610 50L604 0L505.3 0Z" fill="#19435d" stroke="#19435d"></path><path d="M735.7 61L668 194L740.7 182Z" fill="#205a7a" stroke="#205a7a"></path><path d="M854.3 51L735.7 61L740.7 182Z" fill="#081a28" stroke="#081a28"></path><path d="M214.3 143L114.7 273L244.3 296Z" fill="#15384f" stroke="#15384f"></path><path d="M425.7 0L330 0L446.7 74Z" fill="#246688" stroke="#246688"></path><path d="M0 341L68.7 413L126.7 361Z" fill="#1d4e6b" stroke="#1d4e6b"></path><path d="M126.7 361L68.7 413L224.3 447Z" fill="#1d4e6b" stroke="#1d4e6b"></path><path d="M68.7 413L85.7 540L224.3 447Z" fill="#297ea6" stroke="#297ea6"></path><path d="M821.3 0L733.7 0L735.7 61Z" fill="#15384f" stroke="#15384f"></path><path d="M735.7 61L733.7 0L610 50Z" fill="#00101c" stroke="#00101c"></path><path d="M214.3 143L91.7 184L114.7 273Z" fill="#297ea6" stroke="#297ea6"></path><path d="M114.7 273L0 341L126.7 361Z" fill="#00101c" stroke="#00101c"></path><path d="M126.7 92L91.7 184L214.3 143Z" fill="#277297" stroke="#277297"></path><path d="M126.7 92L214.3 143L248.3 99Z" fill="#081a28" stroke="#081a28"></path><path d="M854.3 540L960 416L824.3 432Z" fill="#19435d" stroke="#19435d"></path><path d="M875.3 306L960 237L845.3 217Z" fill="#112e42" stroke="#112e42"></path><path d="M845.3 217L854.3 51L740.7 182Z" fill="#205a7a" stroke="#205a7a"></path><path d="M960 416L960 321L875.3 306Z" fill="#205a7a" stroke="#205a7a"></path><path d="M174.3 0L126.7 92L248.3 99Z" fill="#112e42" stroke="#112e42"></path><path d="M960 321L960 237L875.3 306Z" fill="#277297" stroke="#277297"></path><path d="M854.3 540L960 540L960 416Z" fill="#081a28" stroke="#081a28"></path><path d="M960 187L854.3 51L845.3 217Z" fill="#277297" stroke="#277297"></path><path d="M960 237L960 187L845.3 217Z" fill="#112e42" stroke="#112e42"></path><path d="M960 0L821.3 0L854.3 51Z" fill="#297ea6" stroke="#297ea6"></path><path d="M854.3 51L821.3 0L735.7 61Z" fill="#0c2435" stroke="#0c2435"></path><path d="M0 297L114.7 273L91.7 184Z" fill="#1d4e6b" stroke="#1d4e6b"></path><path d="M0 297L0 341L114.7 273Z" fill="#277297" stroke="#277297"></path><path d="M68.7 413L0 479L85.7 540Z" fill="#277297" stroke="#277297"></path><path d="M330 0L174.3 0L296 76Z" fill="#1d4e6b" stroke="#1d4e6b"></path><path d="M0 185L91.7 184L0 115Z" fill="#0c2435" stroke="#0c2435"></path><path d="M0 185L0 297L91.7 184Z" fill="#081a28" stroke="#081a28"></path><path d="M0 341L0 479L68.7 413Z" fill="#246688" stroke="#246688"></path><path d="M0 479L0 540L85.7 540Z" fill="#205a7a" stroke="#205a7a"></path><path d="M0 115L91.7 184L126.7 92Z" fill="#19435d" stroke="#19435d"></path><path d="M960 187L960 77L854.3 51Z" fill="#19435d" stroke="#19435d"></path><path d="M73.7 0L0 115L126.7 92Z" fill="#1d4e6b" stroke="#1d4e6b"></path><path d="M174.3 0L73.7 0L126.7 92Z" fill="#15384f" stroke="#15384f"></path><path d="M960 77L960 0L854.3 51Z" fill="#00101c" stroke="#00101c"></path><path d="M73.7 0L0 0L0 115Z" fill="#277297" stroke="#277297"></path></g></svg>